<?xml version="1.0" encoding="UTF-8" standalone="no"?>
<!DOCTYPE svg PUBLIC "-//W3C//DTD SVG 1.1//EN" "http://www.w3.org/Graphics/SVG/1.1/DTD/svg11.dtd">
<svg width="100%" height="100%" viewBox="0 0 300 150" version="1.1" xmlns="http://www.w3.org/2000/svg" xmlns:xlink="http://www.w3.org/1999/xlink" xml:space="preserve" xmlns:serif="http://www.serif.com/" style="fill-rule:evenodd;clip-rule:evenodd;stroke-linejoin:round;stroke-miterlimit:1.41421;">
    <g transform="matrix(1,0,0,1,-17.4228,73.2524)">
        <text x="25.819px" y="67.899px" style="font-family:'AmericanTypewriter', 'American Typewriter', serif;font-size:144.444px;">P</text>
        <text x="117.831px" y="67.899px" style="font-family:'LucidaGrande', 'Lucida Grande', sans-serif;font-weight:500;font-size:144.444px;">ᵇ</text>
    </g>
    <g transform="matrix(0.128322,0,0,0.132839,224.764,76.0214)">
        <g transform="matrix(1,0,0,1,-500,-483)">
            <g id="layer101">
                <path d="M197,965.5C197,963.8 204.9,949.8 210.8,940.9C220.6,926.4 231.4,913.7 247.7,898C287.8,859.1 337.7,828.8 379.7,818C389.4,815.4 391.6,815.2 396.7,816C407.7,817.8 413.3,821.2 416.2,827.8C419.9,836 416.6,844.8 406.4,853.9C395.6,863.5 384.2,867.7 354.5,873C335.1,876.5 330.5,877.6 312.8,883C301.9,886.4 293.4,888.3 279.2,890.6C277.2,890.9 273.5,893.2 269.7,896.4C266.3,899.3 262.2,902.5 260.5,903.5C258.9,904.5 254.4,908.5 250.5,912.4C246.7,916.3 238.8,923.8 233.1,929C221.5,939.5 211.8,950.4 205.8,959.8C202.7,964.5 201.2,966 199.4,966C198.1,966 197,965.8 197,965.5ZM326.5,864.9C333.7,863.8 346.1,861.8 354.2,860.5C372.2,857.5 386,853.1 394.1,847.6C400.7,843.2 406.6,836.1 405.7,833.7C404.8,831.4 396.6,827.9 390.8,827.3C380.5,826.3 367.6,831.1 344.3,844.8C337.8,848.6 328.5,853.8 323.7,856.5C314.5,861.4 309,865.5 309,867.2C309,867.8 310,868 311.3,867.6C312.5,867.3 319.4,866.1 326.5,864.9Z" style="fill-rule:nonzero;"/>
                <path d="M91.4,961.6C69.2,958 47.9,947.1 31.9,931.1C24,923.1 15,910.8 15,907.7C15,904.9 20.1,898 22.2,898C26.9,898 32.5,888 44,859.5C53.5,835.5 60.9,820.8 66.8,813.5C69.5,810.2 72.8,805.4 74,803C77.2,796.6 85.9,783.4 93.4,773.4C97,768.7 99.7,764.3 99.4,763.5C98.7,761.8 95.6,760.7 84,758C76.2,756.2 73.7,756 70,756.9C60.8,759 55.9,758.4 49.4,754.1C21.7,735.9 0,702.8 0,678.4C0,665.8 7.7,650.4 16.9,644.6C22.4,641.1 23.3,637.8 21.4,627.7C20.5,623.1 20,616.2 20.2,612C20.8,597.9 29.3,585.6 41.6,581C44.6,579.9 47.9,579 49,579C52.9,579 54.1,574.9 55.1,559.4C55.6,551.3 56.7,541.8 57.5,538.3C61.6,520.7 72.5,509.7 92.7,502.9C104.3,499.1 107.2,496.5 115,483C127.1,462.2 139.9,454.1 166.5,450.9C182.5,448.9 198.6,451.3 211.7,457.6L219.1,461.2L224.3,459.1C245.4,450.3 289.1,449.5 313.3,457.6C320,459.8 324.3,464.5 326.9,472.2C328.1,475.7 329.7,479.6 330.6,480.8C331.4,482 337,485.5 342.9,488.5C365.5,500 376,511.3 377.6,525.8C378.6,534.4 371.1,553 363.2,561.3C355.8,569.2 347,573.1 331,575.5C318.8,577.3 316.5,578.7 317.5,583.9C319.3,593.2 333.4,615.1 365.2,657.7C372.3,667.2 378.3,676.2 378.6,677.9C380,684.7 374.7,688.3 355.3,693.4C340.2,697.5 338.4,698.1 333,701.5C329.3,703.8 329,704.3 329,708.6C329,711.1 330.2,722.2 331.6,733.3C335.8,766.1 334.3,782.8 326,794.4C319.6,803.3 313.7,806 291.4,810.4C267.4,815.1 252.1,817.2 209.8,821.9C190.1,824.1 173.6,826.2 173,826.5C172.4,826.9 172,831.9 172,838.3C172,845.8 171,856.2 168.8,870C165,895.2 164.4,915.9 167.3,925.3C169.7,933.2 168.6,936.4 160.7,943.6C153.2,950.4 137.8,958.1 127,960.5C117,962.8 101.3,963.2 91.4,961.6ZM125.5,944.5C134,942.3 142.8,937.7 147.8,932.9C152.5,928.3 152.9,926.6 150,921C146.2,913.5 145.8,890.1 148.9,863C150,853.9 151.3,842 151.9,836.5C153.6,820.4 156.1,814.6 163,810.6C166.1,808.7 168.8,808.4 188,807.9C208.2,807.2 227.3,805.6 266,801C307.1,796.1 309.3,795.6 314.2,790.4C319.3,785 322,774.4 320.3,766.6L319.4,762.7L309.5,762.5C300.5,762.4 298.2,761.9 286.7,758C272.4,753 268.8,750.4 261.9,739.7C257.7,733.3 257.1,730 259.5,728C261.4,726.5 263.5,727.7 272.4,735.8C279.3,742.1 286.5,745.2 297.9,747.1C305.4,748.3 314.5,747.4 316.5,745.3C317.3,744.5 318.3,742.7 318.7,741.2C319.3,738.6 316.9,719.5 314.8,711C312.7,702.2 312.7,700.9 315,695.9C317,691.7 317.9,690.8 321.4,689.8C339.6,684.8 358.8,678.6 360.2,677.3C362.5,675.3 361.7,673.9 352.1,663C338.5,647.6 318.4,618.3 309.7,601.2C303.4,589 299.6,578.6 295.1,561.6C291.2,547.1 290.6,546 287.4,546C283.7,546 227,560.4 210,565.7C183.7,573.8 165,582.5 155.8,590.8L151.8,594.4L152,619.5C152.1,633.2 152,653.3 151.8,664C151.2,685.6 150.8,687.4 143.7,695.5L140.2,699.5L137.3,697.2C129.4,690.9 114,686.5 102.8,687.3C87.5,688.6 77.2,697.4 74.1,711.8C72.7,718.4 72.7,727.3 74,732.1C74.6,734.3 76.8,737.4 79.3,739.8C86.5,746.4 97.5,749.5 123.9,752.5C138.8,754.2 142,755 142,757.5C142,760 137.7,761.7 130.2,762.3C126,762.7 121.7,763.6 120.3,764.5C119,765.4 115.3,770 112.3,774.8C109.2,779.6 97.8,797 87,813.5C60.6,853.7 53.5,866 42,892.5C34.7,909.4 34.7,909.6 48.7,922.7C63.4,936.7 76.1,943.1 94.5,946C102.4,947.2 118,946.5 125.5,944.5ZM60.3,741.3C60.6,740.8 59.9,737.1 58.8,733C55.2,719.2 57.7,702.4 65,690.9C69.4,684.1 78.1,676.3 84.7,673.3C93,669.5 107,668.9 115.5,671.9C118.8,673.1 122.8,674.3 124.4,674.6C126,674.8 128.3,675.6 129.5,676.4C130.7,677.2 132.5,678 133.6,678.2C135.4,678.5 135.5,677.7 135.5,661C135.5,632.4 137,598 138.6,592.4C140.4,585.8 144.9,579.8 150.4,576.5C162.9,569.2 211.3,553.2 251,543.4C277.6,536.8 286.7,535.2 291.3,536.4C297.6,537.9 302.5,544.9 308,560C311.1,568.4 312.6,569.3 318.1,566.4C319.9,565.5 326.2,563.5 332.1,561.9C349.7,557.3 353.4,554.6 359.6,541.5C366.4,527.4 365.8,523.3 355,513C346,504.3 337.8,499 332.3,498.3C328.9,497.9 328.3,498.1 327,500.5C324.9,504.4 315.8,512.4 310.7,514.9C302.5,518.9 295.5,516.8 292.4,509.4C288.3,499.6 293,491 306.2,484.4C317,479 316.5,473.8 304.8,468.1C296.2,464 283,462.6 259,463.2C238.3,463.8 231.7,465.2 226.8,470C224.3,472.5 224,473.5 224,479.3C224,484.8 223.6,486.3 221.5,488.8C218.8,492 214.4,493.6 211.1,492.5C208.7,491.8 206,486.2 206,482.1C206,480.5 206.9,476.7 208,473.9C210,469 210,468.6 208.4,466.9C207.4,465.8 203.8,464.1 200.3,463C166.4,452.5 130.4,466.5 119,494.6L116.6,500.3L119,501.9C130.1,509.2 134.4,518.4 130.5,526.1C127.1,532.5 117.7,535 111.3,531C107.7,528.9 105.6,525.2 103.3,517.7L101.8,512.7L97,513.3C87.1,514.5 77.6,521.6 72.6,531.6C68.4,540.1 66.7,548.4 66.7,560.7C66.7,574.3 67.6,576 76.3,580C85,584 87.3,586.7 87.8,593.9C88.1,598 87.7,600.6 86.6,602.8C84.7,606.4 78.5,610 74.1,610C69.5,610 64.3,604.8 60.5,596.3C56.6,588 54.8,587 47.2,589.1C35.1,592.5 29.3,605.8 32,624.2C33.7,636.4 34.9,638.7 40.2,640C50.3,642.5 56.2,646.8 57.7,652.8C59,658.3 52.5,664 44.7,664C38.7,664 34.1,661.3 30.7,655.8C26.7,649.3 24.8,649.7 19.2,657.9C5.5,678 11.8,695.9 44.2,729.3C55.3,740.8 59,743.5 60.3,741.3ZM48.8,654.2C49,652.7 48.2,651.5 45.8,650C40.1,646.5 38.1,649.3 42.9,654.1C46.3,657.5 48.3,657.5 48.8,654.2ZM78.2,595C77.9,591.8 74.6,588.5 72.6,589.3C69.8,590.4 73.8,598.4 76.9,597.8C77.9,597.5 78.4,596.6 78.2,595ZM122,521.1C122,517.6 118.5,513 115.9,513C112.7,513 113.4,518.5 117,522.1C120.4,525.5 122,525.2 122,521.1ZM310,499.5C311,498.3 311,497.6 310.1,496.7C308.7,495.3 305.7,496.9 305.2,499.4C304.8,501.5 308.3,501.6 310,499.5Z" style="fill-rule:nonzero;"/>
                <path d="M118.2,719.9C107.4,718.9 99.7,717.3 97.4,715.5C95.6,714.2 95.6,714 97.2,712.4C99.4,710.1 115.9,708.6 124.2,710C131.1,711.1 138,715 138,717.9C138,721.2 134.8,721.5 118.2,719.9Z" style="fill-rule:nonzero;"/>
                <path d="M227,663.6C218.2,660.1 210.3,656.6 208.3,655.1C204.6,652.5 201.7,645.5 202.5,641.3C203.7,634.8 208.1,627.7 214.9,621C227.5,608.8 240.4,603.1 255.5,603C268.2,603 270.6,603.9 280.2,612.6C284.7,616.8 290.1,620.8 292,621.6C299.6,624.8 302,630.3 298.6,636.8C293.3,646.8 272.8,659 253.8,663.5C246,665.3 231.7,665.4 227,663.6ZM239.8,641.9C240.1,629.7 238.9,623 236.4,623C231.4,623 219.3,632.5 216,639.1C212.6,645.6 213,646.3 222.8,650.3C232.8,654.4 234.7,654.9 237.5,654C239.3,653.3 239.5,652.2 239.8,641.9ZM277.2,640.9L283.3,634.9L276.5,628C263.9,615.3 260.6,616 262.6,630.9C265.1,649.4 267.3,650.9 277.2,640.9Z" style="fill-rule:nonzero;"/>
                <path d="M199.2,591.7C197.5,589.6 199.6,586.5 206.3,581.1C223.3,567.6 238.8,562.3 249.9,566.1C253.8,567.5 253.8,569.1 249.8,572.5C245.9,575.8 244.3,576.4 231.2,580.1C225.5,581.8 217.2,584.9 212.8,587.1C201.8,592.6 200.3,593.1 199.2,591.7Z" style="fill-rule:nonzero;"/>
                <path d="M744.5,789.8C742.9,789.2 736.1,786.8 729.5,784.5C722.8,782.1 714.3,779.4 710.6,778.6C693.4,774.6 675.5,760.1 655.8,734.3C646.9,722.6 645.5,722.3 627,729.3C619.4,732.2 614.4,733.4 608.8,733.8C601.5,734.2 600.6,734.1 594.6,731.1C587,727.4 582,722 577.8,713.3C570.5,697.9 574.4,684 588,677.2C601.2,670.6 610.2,670.8 628.4,678.1C633.8,680.3 638.9,681.9 639.6,681.6C640.5,681.3 641,679.4 641,676.6C641,658.1 647,638.2 661.6,608.3C671,589 672.6,583.6 671,574.8C668.8,562.9 664.1,555 650.9,541.5C639.8,530.1 637.6,525.5 637.6,514.5C637.8,501.7 644.6,488.1 653,483.7C660,480.1 670.5,483.5 679,492.2C690.1,503.5 693,513.1 693,538.7C693,548.2 693.4,556 693.8,556C695.1,556 711.3,539 723,525.5C738,508 750.9,495.1 764.5,483.8C780,470.9 789.8,461.4 792,457C793.6,453.8 793.7,451.7 792.9,434C791.5,399.9 794.3,368.8 800,356.7C804.1,348.1 810.3,345 816.8,348.4C820.9,350.5 828.5,359.1 831.4,364.8C837.5,376.8 838.6,392.8 834.6,412C833.3,418.3 832.4,423.7 832.6,423.9C833,424.4 851.6,409.8 862.2,400.8C896.2,371.6 919.3,345.1 930.5,322.5C935.5,312.5 936.2,310.4 937.7,299.5C938.7,292.6 939.4,280.9 939.4,272L939.4,256.5L933.3,238.5C929.5,227.4 925.7,213.8 923.5,203C921.5,193.4 918.3,179.7 916.5,172.5C911.5,152.8 910.6,145.6 910.6,123C910.7,88.7 916.2,66.5 927.8,54.5C934.8,47.3 942.4,45.5 953.1,48.6C957.6,49.9 959.7,51.4 965.5,57.4C983.4,75.8 993.4,107 995.5,151C997.7,195.5 982.7,255 956.8,304C941.4,333.2 918.7,366.1 897.6,389.9C895,392.8 893,395.3 893.2,395.5C893.4,395.7 901.2,394.4 910.5,392.8C924.4,390.3 930.4,389.7 943.5,389.6C957.7,389.5 960.2,389.8 965.5,391.8C978.3,396.6 988.9,406.6 989,414C989,421.2 982.6,427.4 971.9,430.5C958.3,434.4 928.9,434.2 883,429.9C857.9,427.5 846.2,432.1 823.5,453C817.5,458.6 806.4,468.2 799,474.3C774.4,494.5 750.9,516.2 742.9,526.1L740,529.8L748.8,526C775.8,514.4 802,509.8 820.9,513.4C830.6,515.2 841.8,520.2 847.4,525C854.8,531.5 858,542.3 854.5,549C851.3,555.2 841.5,559.4 826,561C816.4,561.9 810.7,561.7 785,559C775.8,558 727.8,555 721.3,555C716.7,555 712.1,559.4 699.7,575.7C680.2,601.5 676.5,607.3 674,615.9C673.1,619.1 673.3,619 679.2,613.1C698.4,593.7 722.7,587.7 742.5,597.6C761.4,607.1 765.1,626.6 750.3,639C739.7,647.8 715.9,655 697.3,655C683.1,655 674.8,658.1 670.5,665.1C669.1,667.2 665.4,671.6 662.1,674.8C652.9,684 652.8,688.7 661,707.7C663.8,713.9 666,719.8 666,720.6C666,725 671.9,732.9 685,746C700.1,761.1 703.2,763.1 723.5,771.5C734.6,776 742.3,780.3 747.2,784.8C753.1,790.1 751.9,792.4 744.5,789.8ZM625.5,721.8C637.8,718 642.8,715.6 643.7,713.4C645.7,708.1 637.8,697.3 628.2,692.2C611.9,683.5 595.7,684.2 589.3,693.9C584.7,700.7 586.9,713.7 593.6,720.4C600.3,727 607.8,727.4 625.5,721.8ZM706.4,638.9C719,637.6 726.1,636 734.3,632.3C744.3,627.8 747.4,621.5 743,614.3C740,609.2 735.8,607.6 726,607.5C718.1,607.5 716.9,607.8 709.8,611.3C696.3,618.1 679,633.7 679,639.1C679,641.3 680.7,641.3 706.4,638.9ZM680.4,537.4C680.3,526 677.9,516.4 672.7,506.7C667.8,497.4 662.1,494.7 656.6,499.1C650.2,504.2 648.1,514.4 652.3,521.2C655.9,527.2 676.9,548.2 678.8,547.8C680.3,547.5 680.5,546.1 680.4,537.4ZM833.9,545.4C837.1,544.5 839.6,543 840.6,541.5C842.1,539.2 842.1,538.8 840.7,536.6C838.6,533.4 833.8,530.6 826,528C820,526 818.2,525.8 804,526.3C782.2,527.1 767.5,530.8 753,539.1C748.2,541.9 747.8,542.4 749.6,543.1C753.2,544.4 772.7,546 786.4,546.1C793.6,546.2 802.7,546.6 806.5,547C815.6,548 827.4,547.4 833.9,545.4ZM813.8,439.7C819.7,433.5 823.1,419.6 824.5,395.9C825.1,386.7 824.9,383.3 823.7,378.9C821.7,372.2 816.7,364.8 814.6,365.6C812.7,366.3 810.4,372.6 809,380.5C807.3,389.9 806.7,417.4 807.8,429.2C809.1,443 809.7,444 813.8,439.7ZM956,420C968.9,418.5 973.9,417.1 975.7,414.4C977.1,412.2 977.1,411.8 975.5,409.4C973.2,405.9 965.3,402.5 955,400.5C947.9,399.2 944.2,399.1 931.5,400C913.9,401.3 900.2,403.4 891.7,406.2C884.9,408.4 875.8,412.9 872.1,415.8L869.7,417.8L876.6,418.9C892.6,421.6 937,422.2 956,420ZM961.3,261.7C975.7,228.9 982.2,198.7 982.3,164C982.4,136.7 979.1,115.5 971.3,92C966.7,78.2 964.8,74.7 958.1,67.7C942.1,50.9 931.8,56 925.7,84C923.9,92 923.6,97 923.6,116.5C923.5,142.5 924.3,148.9 929.6,164.7C931.5,170.5 935.1,184.7 937.5,196.1C939.9,207.6 943.1,220.3 944.6,224.2C951.7,243.9 953,248.1 953.9,255.3C954.5,259.6 955,265.4 955,268.1C955,270.9 955.4,272.9 955.9,272.6C956.4,272.3 958.8,267.4 961.3,261.7Z" style="fill-rule:nonzero;"/>
                <path d="M359.2,787.4C358.3,787 358.8,785.8 360.9,783.4C362.6,781.6 367.1,774.6 371,767.9C375,761.3 380.5,753 383.4,749.6C393.2,738 397.6,730.4 403.6,714.6C407.8,703.8 413.5,692.8 419.6,684.3C422.8,679.8 425.3,677.5 429.2,675.6C435.2,672.6 438.4,672.4 444,674.6C451.7,677.7 454.1,684.2 452.9,698.4C450.8,721.5 438.9,741.3 415.2,761.1C395.3,777.6 378.2,787.1 367,787.6C363.4,787.8 359.9,787.7 359.2,787.4ZM391.3,764.2C398.4,759.2 424.2,734.2 427.7,728.7C435.7,716.3 442.3,690.4 438.7,685.6C437.3,683.7 437.2,683.7 433.7,685.9C428.8,688.9 426.5,692.3 419.9,706.5C408.5,731 395,751.8 381.1,766.3L376.5,771.1L381.6,769.2C384.4,768.2 388.7,765.9 391.3,764.2Z" style="fill-rule:nonzero;"/>
                <path d="M781.7,751.3C780.5,750.1 781,735.4 782.5,727.3C785.3,712.7 800.2,672.9 809.7,655C830.6,615.4 864.4,581.4 902.5,561.7C920.9,552.2 942,551.4 958.9,559.6C966.3,563.2 977.7,574.7 981.3,582.2C994.8,610.4 978,639.9 943.9,647.9C918.2,653.9 891.7,657.5 866,658.5C847.5,659.2 841.8,660.2 834.5,663.8C823.3,669.3 814.8,678.9 809.5,692C806.2,700.2 805,701.1 805,695.3C805,693.5 804.6,692 804.1,692C801.8,692 792.4,716.7 786.4,738.1C782.4,752.9 782.6,752.3 781.7,751.3ZM836.5,646.1C844.9,643.9 860.4,642 884.5,640C927.8,636.5 943.6,633.5 960.7,625.4C965.1,623.3 966.3,622.1 968.4,617.7C971.9,610.6 973.8,597.3 972.1,591.1C969.7,581.9 961.8,574.4 950.5,570.6C942.7,568 930.7,567.4 923,569.4C910.2,572.7 892.1,583.1 874,597.7C856.8,611.5 836,634 830.5,644.8C828.9,648 828.9,648.2 830.7,647.6C831.7,647.4 834.3,646.7 836.5,646.1Z" style="fill-rule:nonzero;"/>
                <path d="M391.4,596.6C391.1,595.9 391.8,591.6 393,587C404.7,541 438,507.5 478.4,501C497.2,497.9 505.5,503.5 505.4,519C505.4,531 499.1,538.5 486.1,542C483.7,542.6 473.8,544.5 464.1,546.1C446.2,549.1 436.9,551.5 429.6,555.2C418.2,560.9 409.5,570.6 401.8,585.8C399.2,591 396.6,595.8 395.9,596.6C394.4,598.4 392.1,598.4 391.4,596.6ZM453,538C470.6,535.7 482.8,532.9 487.4,530.2C495.1,525.7 497.4,516.2 492.1,510.9C490.5,509.3 488.5,508 487.7,508C483.8,508 466,513.3 459.5,516.5C448.1,521.9 429.8,537.3 431.5,540C431.9,540.7 433.3,541 434.9,540.6C436.3,540.3 444.5,539.1 453,538Z" style="fill-rule:nonzero;"/>
                <path d="M395.4,507.9C395,507.2 394.3,501 393.9,494.1C393.1,479.6 392.3,477.1 383.6,460.5C380.2,453.9 376.7,446.9 375.9,445C375.2,443.1 371.7,436.6 368.3,430.5C357.8,412.2 355.5,403.7 358.4,393.7C360.2,387.5 365.2,380.3 369.2,378C371.7,376.6 372.3,376.7 377.5,379.3C385.5,383.2 392.4,390 396.4,398.1C402.4,410.1 404.5,424.8 405.6,462.5C406.3,485.1 405.4,495.4 402.1,501.8C399.6,506.7 396.5,509.6 395.4,507.9ZM390.4,440.5C388.1,422.4 385,408 382.5,402.9C378.1,394.2 371.3,391.5 368.1,397.1C365.9,401 368,409.2 372.9,415.7C375.1,418.6 379,426.6 382,434.2C388.6,450.7 390,453.5 391,452.4C391.4,451.9 391.2,446.6 390.4,440.5Z" style="fill-rule:nonzero;"/>
                <path d="M442.4,469.6C443.2,463.7 449.1,452.2 454.7,445.4C470.7,426.3 500.6,414.6 518.2,420.6C520.7,421.4 524.5,423.6 526.7,425.4C530.2,428.6 530.5,429.1 530.5,434.3C530.5,439 530,440.4 527.4,443.7C520.5,452.3 508.1,456.7 495.8,455C480.9,452.8 465.4,454.2 457.2,458.4C453,460.6 446.2,466.6 443.7,470.5L441.8,473.5L442.4,469.6ZM513.3,439.2C519.5,436.4 519.3,434.2 512.7,432.1C506.8,430.3 497.2,431.6 488.4,435.5C476.3,440.8 477.8,442.1 496,441.7C506.4,441.5 509.3,441.1 513.3,439.2Z" style="fill-rule:nonzero;"/>
                <path d="M477.1,315.4C473.8,311.2 473.6,308.5 475.9,298.7C477.5,292 478.3,283.9 479,269C480,246.4 480.4,244 488.4,218C491.4,208.4 495.4,194.9 497.5,188C508.8,149.2 527.4,121.5 556,100.3C572.7,88 588,80.1 608.6,73.2C658.1,56.6 721.7,58.7 772.4,78.7C783.4,83 800.9,91.7 808.5,96.5C816.3,101.5 830.9,113.9 837.6,121.3C840.7,124.7 846.8,132 851.1,137.5C855.4,143 863,152 867.9,157.5C879.4,170.1 884.4,179.2 884.4,187C884.3,200.7 883.1,220.5 882.2,220.8C881.8,220.9 880.5,220.1 879.5,219C878.5,217.9 877.1,217 876.4,217C875.7,217 872.6,220.1 869.6,223.8C862.8,232.2 858,235.7 843.8,242.5C828.8,249.7 815.9,253 800.4,253.7C778.3,254.7 761,251.3 719.1,237.6C673.8,222.7 663.9,220.6 639,220.7C599.6,220.8 564.4,230.6 535.5,249.4C512.6,264.3 497.1,283.1 487.3,307.6C482.8,318.7 480.9,320.2 477.1,315.4ZM507.4,256.1C531.8,232.1 554.1,219.9 587.1,212.6C604,208.9 616.1,207.8 640.5,207.8C671,207.7 677.2,209.1 730.5,227.4C773,242 792.5,244.6 816.8,238.9C837.7,234.1 859.1,219.4 865.6,205.5C870.2,195.9 868.1,187 857.9,171.8C852.4,163.6 840.9,151.8 834,147C818.5,136.4 785.2,122.7 762.5,117.4C732.6,110.5 695.5,109.6 669,115C639.9,120.9 610,134.5 576.2,157.2C562,166.7 561.2,166.7 566.5,157.4C577.7,138 634.3,105.8 670,98.6C697.7,93 730.2,93.9 761,100.9C773.6,103.8 792.4,109.6 800.9,113.1L805.5,115L803,113C797.5,108.5 781.9,99.8 771.5,95.5C747.2,85.2 721.6,80.1 690.9,79.3C659.8,78.4 636.5,81.6 610.3,90.1C546.6,110.8 513.2,156.9 493.9,250.8C490.9,265.8 490.7,269 493.1,269C493.8,269 500.2,263.2 507.4,256.1Z" style="fill:rgb(12,158,5);fill-rule:nonzero;"/>
                <path d="M384.5,232.8C375.4,229.4 370.8,221.5 370.8,209.6C370.8,200.9 372.8,193.2 377.6,184.3C379.6,180.5 380.7,177.3 380.2,176.8C379.7,176.3 374,177 366.9,178.4C336.7,184.5 305.5,183.6 283.7,176.1C264.9,169.6 252.3,158.8 244.4,142.5C241.8,137 238.9,132 238.1,131.3C237.2,130.6 234.5,129.8 232,129.5C224.1,128.4 213.1,125.1 207.1,122C198.6,117.8 187.1,108.2 181.6,100.9C175.2,92.4 164.6,70.5 162,60.6C158.4,46.3 159.9,29.2 165.2,24.3C170.2,19.7 176.2,17.5 183.5,17.6C192.3,17.6 198.3,20.3 204.4,27.1C209.4,32.7 209.7,32.5 212.3,23.8C216,11.8 224.6,3.1 233.8,2.2C249.1,0.8 263.1,13.3 271.9,36.3C272.5,37.8 273.4,39 273.8,39C274.3,39 278.1,35.6 282.1,31.5C293.7,19.6 301.2,16.9 310.1,21.6C317.6,25.4 324.7,37.4 327.6,51C329.5,59.9 329,76.2 326.6,85.5C324.1,95 317.5,107.4 311.5,113.8C305.9,119.9 295.3,126.4 292.7,125.4C291.8,125.1 290.5,126.1 289.1,128.4C286.2,133 280,135.9 270.7,136.9C261.3,138 260.8,138.3 262.1,141.9C265.2,150.7 276.1,157.6 295,162.7C305.1,165.4 306.4,165.5 328.5,165.5C346.4,165.5 353.7,165.1 361.5,163.6C376.3,160.9 392.6,156.6 409.3,150.9C425,145.6 454,133.9 454,132.9C454,132.6 447.6,131.5 439.8,130.6C422.4,128.5 413.3,126.5 406,123.3C390.1,116.3 387.5,102.9 399.8,90.5C409.7,80.4 423.9,79.6 441.5,88C454.8,94.4 466.7,105.5 472.9,117.3L475.7,122.7L479.6,120.7C485.2,117.9 511.5,100.3 517.8,95.2C524.8,89.5 529,87 531.8,87C534.5,87 534.5,87.4 531.8,91.3C518.2,111.1 498,127.3 468.1,142.4C460.1,146.4 448.6,151.7 442.5,154C429.7,159 425.7,161.7 423,167C420,172.8 419,179 418,196.5C417.5,205.3 416.3,214.9 415.5,217.8C413.8,223.5 409.3,229.3 404.7,231.6C401,233.6 388.4,234.3 384.5,232.8ZM400.2,221.3C401.1,220.3 402.2,217.9 402.8,216C404.2,211.5 405.4,179.9 404.2,178.2C402.8,176.2 400.3,177.8 397,183.1C390.5,193.1 384,213 385.7,217.7C387.1,221.6 389.2,223 394,223C397.2,223 399.2,222.5 400.2,221.3ZM271.2,116.4C283,111.2 291.5,105.5 299.6,97.5C310.6,86.6 312.4,82.1 312.5,65.5C312.5,58.3 311.9,51.6 311.1,48.8C309.6,43.5 304.7,37.5 301.2,36.5C297,35.3 292.2,41.8 286.2,57.1C280.1,72.3 277.1,77 273.5,77C268.9,77 263.8,66.5 260.5,49.8C258.2,38.3 255.4,30.4 251.9,25.4C248.1,19.8 241.7,16 236,16C232.4,16 231.2,16.6 228.5,19.5C226.4,21.7 224.8,24.8 223.9,28.2C222.2,35.3 222.5,49.9 224.4,58.3C226.4,66.8 226.4,69.3 224.5,73C222.6,76.8 219.3,77.8 217,75.4C216,74.3 212.9,67.9 210.1,61C204.4,47.2 201.4,41.6 196.8,36.4C192.7,31.7 189.1,30 183.3,30C177.2,30 174.4,32 173,37.1C171.6,42.3 172.8,48.4 178.5,64.7C185.5,84.9 195.1,98.2 210.3,108.4C219,114.3 227.8,118 233.2,118C235.1,118 238.1,116.9 240.2,115.5C244.7,112.5 246.6,112.4 248,115C251,120.6 260.3,121.2 271.2,116.4ZM456.6,117.2C452.6,109.4 438.6,100.8 426.7,98.7C420.8,97.7 420,97.8 414.7,100.3C411.5,101.7 408.7,103.6 408.3,104.5C406.4,109.5 420.4,114.4 449,118.9C458.4,120.4 458.3,120.4 456.6,117.2Z" style="fill-rule:nonzero;"/>
                <path d="M859.9,115.6C853.2,113 849.6,110.8 844.3,105.7C837.4,99.2 836.2,97.2 829.5,80.5C820.3,57.4 809.6,38.8 797.4,24.5C792.1,18.2 791.9,16.3 796.8,18.1C798.6,18.8 799.9,18.4 802.9,15.9C813,7.9 831.3,8.3 849.1,17C863.9,24.2 869.8,31.1 877.1,49.8C883.9,67.3 886.3,77.8 886.4,91C886.5,101.1 886.2,103 884.3,106.7C880.8,113.1 875.9,116.3 869.2,116.7C866,116.8 861.9,116.4 859.9,115.6ZM870.7,105.4C873.3,102.8 873.3,102.8 872.7,89.7C872.1,74.6 869.9,64.9 864.6,53.9C855.2,34 840.2,23.5 819.5,22.3C806.4,21.5 806,22.5 814.4,32.8C826.9,48.1 836.2,64.3 841.5,80C842.9,84 845.1,89.2 846.5,91.5C849.7,97 859.2,105.7 863.3,106.9C867.9,108.2 867.8,108.2 870.7,105.4Z" style="fill-rule:nonzero;"/>
            </g>
        </g>
    </g>
</svg>
